<?xml version="1.0" encoding="UTF-8" standalone="no"?>
<!DOCTYPE svg PUBLIC "-//W3C//DTD SVG 1.1//EN"
 "http://www.w3.org/Graphics/SVG/1.1/DTD/svg11.dtd">
<!-- Generated by graphviz version 2.40.1 (20161225.0304)
 -->
<!-- Title: G Pages: 1 -->
<svg width="823pt" height="295pt"
 viewBox="0.00 0.00 822.86 294.60" xmlns="http://www.w3.org/2000/svg" xmlns:xlink="http://www.w3.org/1999/xlink">
<g id="graph0" class="graph" transform="scale(1 1) rotate(0) translate(4 290.6)">
<title>G</title>
<polygon fill="#ffffff" stroke="transparent" points="-4,4 -4,-290.6 818.8642,-290.6 818.8642,4 -4,4"/>
<!-- web_sub_dynamo -->
<g id="node1" class="node">
<title>web_sub_dynamo</title>
<ellipse fill="#d3d3d3" stroke="#d3d3d3" cx="81.3053" cy="-179.8" rx="81.111" ry="18"/>
<text text-anchor="middle" x="81.3053" y="-175.6" font-family="Times,serif" font-size="14.00" fill="#000000">web_sub_dynamo</text>
</g>
<!-- ivr_sub_dynamo -->
<g id="node2" class="node">
<title>ivr_sub_dynamo</title>
<ellipse fill="#d3d3d3" stroke="#d3d3d3" cx="392.3053" cy="-179.8" rx="75.8914" ry="18"/>
<text text-anchor="middle" x="392.3053" y="-175.6" font-family="Times,serif" font-size="14.00" fill="#000000">ivr_sub_dynamo</text>
</g>
<!-- glue_web_sub_s3 -->
<g id="node3" class="node">
<title>glue_web_sub_s3</title>
<polygon fill="#ffa500" stroke="#ffa500" points="189.6213,-286.6 72.9892,-286.6 72.9892,-250.6 189.6213,-250.6 189.6213,-286.6"/>
<text text-anchor="middle" x="131.3053" y="-264.4" font-family="Times,serif" font-size="14.00" fill="#000000">glue_web_sub_s3</text>
</g>
<!-- glue_web_sub_s3&#45;&gt;web_sub_dynamo -->
<g id="edge1" class="edge">
<title>glue_web_sub_s3&#45;&gt;web_sub_dynamo</title>
<path fill="none" stroke="#000000" stroke-dasharray="5,2" d="M120.9452,-250.2006C113.859,-237.6155 104.3498,-220.7271 96.4214,-206.6463"/>
<polygon fill="#000000" stroke="#000000" points="99.4371,-204.8685 91.481,-197.872 93.3376,-208.3029 99.4371,-204.8685"/>
<text text-anchor="middle" x="123.3502" y="-220" font-family="Times,serif" font-size="14.00" fill="#000000">read</text>
</g>
<!-- web_sub_s3 -->
<g id="node4" class="node">
<title>web_sub_s3</title>
<ellipse fill="#d3d3d3" stroke="#d3d3d3" cx="239.3053" cy="-179.8" rx="58.554" ry="18"/>
<text text-anchor="middle" x="239.3053" y="-175.6" font-family="Times,serif" font-size="14.00" fill="#000000">web_sub_s3</text>
</g>
<!-- glue_web_sub_s3&#45;&gt;web_sub_s3 -->
<g id="edge2" class="edge">
<title>glue_web_sub_s3&#45;&gt;web_sub_s3</title>
<path fill="none" stroke="#000000" d="M153.4213,-250.4157C170.0114,-236.775 192.8568,-217.991 210.8151,-203.2252"/>
<polygon fill="#000000" stroke="#000000" points="213.1809,-205.8112 218.6823,-196.7566 208.7352,-200.4042 213.1809,-205.8112"/>
</g>
<!-- athena_merge -->
<g id="node9" class="node">
<title>athena_merge</title>
<polygon fill="#ffa500" stroke="#ffa500" points="667.3213,-124.8 573.2892,-124.8 573.2892,-88.8 667.3213,-88.8 667.3213,-124.8"/>
<text text-anchor="middle" x="620.3053" y="-102.6" font-family="Times,serif" font-size="14.00" fill="#000000">athena_merge</text>
</g>
<!-- web_sub_s3&#45;&gt;athena_merge -->
<g id="edge5" class="edge">
<title>web_sub_s3&#45;&gt;athena_merge</title>
<path fill="none" stroke="#000000" d="M283.0676,-167.6317C291.1003,-165.5648 299.4332,-163.5303 307.3053,-161.8 395.9957,-142.3061 500.0217,-125.1442 563.0043,-115.3735"/>
<polygon fill="#000000" stroke="#000000" points="563.7823,-118.7949 573.1318,-113.8112 562.715,-111.8768 563.7823,-118.7949"/>
</g>
<!-- glue_ivr_sub_s3 -->
<g id="node5" class="node">
<title>glue_ivr_sub_s3</title>
<polygon fill="#ffa500" stroke="#ffa500" points="493.3518,-286.6 385.2587,-286.6 385.2587,-250.6 493.3518,-250.6 493.3518,-286.6"/>
<text text-anchor="middle" x="439.3053" y="-264.4" font-family="Times,serif" font-size="14.00" fill="#000000">glue_ivr_sub_s3</text>
</g>
<!-- glue_ivr_sub_s3&#45;&gt;ivr_sub_dynamo -->
<g id="edge3" class="edge">
<title>glue_ivr_sub_s3&#45;&gt;ivr_sub_dynamo</title>
<path fill="none" stroke="#000000" stroke-dasharray="5,2" d="M429.5668,-250.2006C422.9692,-237.7353 414.1372,-221.0484 406.7278,-207.0494"/>
<polygon fill="#000000" stroke="#000000" points="409.6419,-205.0731 401.8704,-197.872 403.455,-208.3477 409.6419,-205.0731"/>
<text text-anchor="middle" x="432.3502" y="-220" font-family="Times,serif" font-size="14.00" fill="#000000">read</text>
</g>
<!-- ivr_sub_s3 -->
<g id="node6" class="node">
<title>ivr_sub_s3</title>
<ellipse fill="#d3d3d3" stroke="#d3d3d3" cx="539.3053" cy="-179.8" rx="53.3341" ry="18"/>
<text text-anchor="middle" x="539.3053" y="-175.6" font-family="Times,serif" font-size="14.00" fill="#000000">ivr_sub_s3</text>
</g>
<!-- glue_ivr_sub_s3&#45;&gt;ivr_sub_s3 -->
<g id="edge4" class="edge">
<title>glue_ivr_sub_s3&#45;&gt;ivr_sub_s3</title>
<path fill="none" stroke="#000000" d="M460.0253,-250.2006C475.266,-236.6669 496.1105,-218.1569 512.6011,-203.5133"/>
<polygon fill="#000000" stroke="#000000" points="515.1496,-205.931 520.303,-196.674 510.5016,-200.6969 515.1496,-205.931"/>
</g>
<!-- ivr_sub_s3&#45;&gt;athena_merge -->
<g id="edge6" class="edge">
<title>ivr_sub_s3&#45;&gt;athena_merge</title>
<path fill="none" stroke="#000000" d="M558.0919,-162.8688C568.3443,-153.629 581.2325,-142.0137 592.6155,-131.7549"/>
<polygon fill="#000000" stroke="#000000" points="595.1195,-134.21 600.2048,-124.9153 590.4332,-129.0101 595.1195,-134.21"/>
</g>
<!-- nhs_s3 -->
<g id="node7" class="node">
<title>nhs_s3</title>
<ellipse fill="#d3d3d3" stroke="#d3d3d3" cx="648.3053" cy="-179.8" rx="37.7236" ry="18"/>
<text text-anchor="middle" x="648.3053" y="-175.6" font-family="Times,serif" font-size="14.00" fill="#000000">nhs_s3</text>
</g>
<!-- nhs_s3&#45;&gt;athena_merge -->
<g id="edge7" class="edge">
<title>nhs_s3&#45;&gt;athena_merge</title>
<path fill="none" stroke="#000000" d="M641.3839,-161.7551C638.2204,-153.5074 634.4025,-143.5536 630.8901,-134.3962"/>
<polygon fill="#000000" stroke="#000000" points="634.0932,-132.9737 627.244,-124.8904 627.5575,-135.4806 634.0932,-132.9737"/>
</g>
<!-- location_s3 -->
<g id="node8" class="node">
<title>location_s3</title>
<ellipse fill="#d3d3d3" stroke="#d3d3d3" cx="759.3053" cy="-179.8" rx="55.6178" ry="18"/>
<text text-anchor="middle" x="759.3053" y="-175.6" font-family="Times,serif" font-size="14.00" fill="#000000">location_s3</text>
</g>
<!-- location_s3&#45;&gt;athena_merge -->
<g id="edge8" class="edge">
<title>location_s3&#45;&gt;athena_merge</title>
<path fill="none" stroke="#000000" d="M729.8269,-164.3186C710.5814,-154.2112 685.1247,-140.8419 663.5981,-129.5365"/>
<polygon fill="#000000" stroke="#000000" points="665.1232,-126.3842 654.6425,-124.8332 661.8685,-132.5815 665.1232,-126.3842"/>
</g>
<!-- query_table_s3 -->
<g id="node10" class="node">
<title>query_table_s3</title>
<ellipse fill="#d3d3d3" stroke="#d3d3d3" cx="620.3053" cy="-18" rx="70.0674" ry="18"/>
<text text-anchor="middle" x="620.3053" y="-13.8" font-family="Times,serif" font-size="14.00" fill="#000000">query_table_s3</text>
</g>
<!-- athena_merge&#45;&gt;query_table_s3 -->
<g id="edge9" class="edge">
<title>athena_merge&#45;&gt;query_table_s3</title>
<path fill="none" stroke="#000000" d="M620.3053,-88.4006C620.3053,-76.2949 620.3053,-60.2076 620.3053,-46.4674"/>
<polygon fill="#000000" stroke="#000000" points="623.8054,-46.072 620.3053,-36.072 616.8054,-46.0721 623.8054,-46.072"/>
</g>
<!-- athena_query -->
<g id="node11" class="node">
<title>athena_query</title>
<polygon fill="#ffa500" stroke="#ffa500" points="784.2158,-124.8 692.3947,-124.8 692.3947,-88.8 784.2158,-88.8 784.2158,-124.8"/>
<text text-anchor="middle" x="738.3053" y="-102.6" font-family="Times,serif" font-size="14.00" fill="#000000">athena_query</text>
</g>
<!-- athena_query&#45;&gt;query_table_s3 -->
<g id="edge10" class="edge">
<title>athena_query&#45;&gt;query_table_s3</title>
<path fill="none" stroke="#000000" stroke-dasharray="5,2" d="M714.1415,-88.6157C695.97,-74.9409 670.9298,-56.0971 651.2864,-41.3146"/>
<polygon fill="#000000" stroke="#000000" points="653.3288,-38.4713 643.234,-35.2548 649.1197,-44.0645 653.3288,-38.4713"/>
<text text-anchor="middle" x="701.3502" y="-58.2" font-family="Times,serif" font-size="14.00" fill="#000000">read</text>
</g>
<!-- output -->
<g id="node12" class="node">
<title>output</title>
<ellipse fill="#00ff00" stroke="#00ff00" cx="744.3053" cy="-18" rx="35.9368" ry="18"/>
<text text-anchor="middle" x="744.3053" y="-13.8" font-family="Times,serif" font-size="14.00" fill="#000000">output</text>
</g>
<!-- athena_query&#45;&gt;output -->
<g id="edge11" class="edge">
<title>athena_query&#45;&gt;output</title>
<path fill="none" stroke="#000000" d="M739.5485,-88.4006C740.3745,-76.175 741.4749,-59.8887 742.4093,-46.0599"/>
<polygon fill="#000000" stroke="#000000" points="745.902,-46.2852 743.0842,-36.072 738.9179,-45.8133 745.902,-46.2852"/>
</g>
</g>
</svg>