<?xml version="1.0" encoding="UTF-8" standalone="no"?>
<!DOCTYPE svg PUBLIC "-//W3C//DTD SVG 1.1//EN"
 "http://www.w3.org/Graphics/SVG/1.1/DTD/svg11.dtd">
<!-- Generated by graphviz version 2.40.1 (20161225.0304)
 -->
<!-- Title: G Pages: 1 -->
<svg width="780pt" height="404pt"
 viewBox="0.00 0.00 780.37 404.00" xmlns="http://www.w3.org/2000/svg" xmlns:xlink="http://www.w3.org/1999/xlink">
<g id="graph0" class="graph" transform="scale(1 1) rotate(0) translate(4 400)">
<title>G</title>
<polygon fill="#ffffff" stroke="transparent" points="-4,4 -4,-400 776.3676,-400 776.3676,4 -4,4"/>
<!-- web_sub_dynamo -->
<g id="node1" class="node">
<title>web_sub_dynamo</title>
<ellipse fill="#d3d3d3" stroke="#d3d3d3" cx="81.3053" cy="-306" rx="81.111" ry="18"/>
<text text-anchor="middle" x="81.3053" y="-301.8" font-family="Times,serif" font-size="14.00" fill="#000000">web_sub_dynamo</text>
</g>
<!-- ivr_sub_dynamo -->
<g id="node2" class="node">
<title>ivr_sub_dynamo</title>
<ellipse fill="#d3d3d3" stroke="#d3d3d3" cx="402.3053" cy="-306" rx="75.8914" ry="18"/>
<text text-anchor="middle" x="402.3053" y="-301.8" font-family="Times,serif" font-size="14.00" fill="#000000">ivr_sub_dynamo</text>
</g>
<!-- glue_web_sub_s3 -->
<g id="node3" class="node">
<title>glue_web_sub_s3</title>
<polygon fill="#ffa500" stroke="#ffa500" points="218.6213,-396 101.9892,-396 101.9892,-360 218.6213,-360 218.6213,-396"/>
<text text-anchor="middle" x="160.3053" y="-373.8" font-family="Times,serif" font-size="14.00" fill="#000000">glue_web_sub_s3</text>
</g>
<!-- glue_web_sub_s3&#45;&gt;web_sub_dynamo -->
<g id="edge1" class="edge">
<title>glue_web_sub_s3&#45;&gt;web_sub_dynamo</title>
<path fill="none" stroke="#000000" d="M140.3702,-359.8314C130.5863,-350.9144 118.6599,-340.0447 108.0923,-330.4135"/>
<polygon fill="#000000" stroke="#000000" points="110.4363,-327.8143 100.6877,-323.665 105.7211,-332.9879 110.4363,-327.8143"/>
</g>
<!-- web_sub_s3 -->
<g id="node4" class="node">
<title>web_sub_s3</title>
<ellipse fill="#d3d3d3" stroke="#d3d3d3" cx="239.3053" cy="-306" rx="58.554" ry="18"/>
<text text-anchor="middle" x="239.3053" y="-301.8" font-family="Times,serif" font-size="14.00" fill="#000000">web_sub_s3</text>
</g>
<!-- glue_web_sub_s3&#45;&gt;web_sub_s3 -->
<g id="edge2" class="edge">
<title>glue_web_sub_s3&#45;&gt;web_sub_s3</title>
<path fill="none" stroke="#000000" d="M180.2403,-359.8314C190.1713,-350.7803 202.3098,-339.7174 212.994,-329.9799"/>
<polygon fill="#000000" stroke="#000000" points="215.431,-332.4944 220.4644,-323.1715 210.7158,-327.3207 215.431,-332.4944"/>
</g>
<!-- athena_web_sub_clean -->
<g id="node9" class="node">
<title>athena_web_sub_clean</title>
<polygon fill="#ffa500" stroke="#ffa500" points="312.14,-252 166.4706,-252 166.4706,-216 312.14,-216 312.14,-252"/>
<text text-anchor="middle" x="239.3053" y="-229.8" font-family="Times,serif" font-size="14.00" fill="#000000">athena_web_sub_clean</text>
</g>
<!-- web_sub_s3&#45;&gt;athena_web_sub_clean -->
<g id="edge5" class="edge">
<title>web_sub_s3&#45;&gt;athena_web_sub_clean</title>
<path fill="none" stroke="#000000" d="M239.3053,-287.8314C239.3053,-280.131 239.3053,-270.9743 239.3053,-262.4166"/>
<polygon fill="#000000" stroke="#000000" points="242.8054,-262.4132 239.3053,-252.4133 235.8054,-262.4133 242.8054,-262.4132"/>
</g>
<!-- glue_ivr_sub_s3 -->
<g id="node5" class="node">
<title>glue_ivr_sub_s3</title>
<polygon fill="#ffa500" stroke="#ffa500" points="529.3518,-396 421.2587,-396 421.2587,-360 529.3518,-360 529.3518,-396"/>
<text text-anchor="middle" x="475.3053" y="-373.8" font-family="Times,serif" font-size="14.00" fill="#000000">glue_ivr_sub_s3</text>
</g>
<!-- glue_ivr_sub_s3&#45;&gt;ivr_sub_dynamo -->
<g id="edge3" class="edge">
<title>glue_ivr_sub_s3&#45;&gt;ivr_sub_dynamo</title>
<path fill="none" stroke="#000000" d="M456.8843,-359.8314C447.9312,-351.001 437.0366,-340.2556 427.3426,-330.6944"/>
<polygon fill="#000000" stroke="#000000" points="429.7931,-328.1953 420.2156,-323.665 424.8776,-333.1791 429.7931,-328.1953"/>
</g>
<!-- ivr_sub_s3 -->
<g id="node6" class="node">
<title>ivr_sub_s3</title>
<ellipse fill="#d3d3d3" stroke="#d3d3d3" cx="549.3053" cy="-306" rx="53.3341" ry="18"/>
<text text-anchor="middle" x="549.3053" y="-301.8" font-family="Times,serif" font-size="14.00" fill="#000000">ivr_sub_s3</text>
</g>
<!-- glue_ivr_sub_s3&#45;&gt;ivr_sub_s3 -->
<g id="edge4" class="edge">
<title>glue_ivr_sub_s3&#45;&gt;ivr_sub_s3</title>
<path fill="none" stroke="#000000" d="M493.9786,-359.8314C503.1908,-350.8682 514.4307,-339.932 524.3674,-330.2639"/>
<polygon fill="#000000" stroke="#000000" points="526.9303,-332.6536 531.6568,-323.1715 522.0488,-327.6365 526.9303,-332.6536"/>
</g>
<!-- athena_ivr_sub_clean -->
<g id="node11" class="node">
<title>athena_ivr_sub_clean</title>
<polygon fill="#ffa500" stroke="#ffa500" points="618.3699,-252 480.2407,-252 480.2407,-216 618.3699,-216 618.3699,-252"/>
<text text-anchor="middle" x="549.3053" y="-229.8" font-family="Times,serif" font-size="14.00" fill="#000000">athena_ivr_sub_clean</text>
</g>
<!-- ivr_sub_s3&#45;&gt;athena_ivr_sub_clean -->
<g id="edge7" class="edge">
<title>ivr_sub_s3&#45;&gt;athena_ivr_sub_clean</title>
<path fill="none" stroke="#000000" d="M549.3053,-287.8314C549.3053,-280.131 549.3053,-270.9743 549.3053,-262.4166"/>
<polygon fill="#000000" stroke="#000000" points="552.8054,-262.4132 549.3053,-252.4133 545.8054,-262.4133 552.8054,-262.4132"/>
</g>
<!-- nhs_s3 -->
<g id="node7" class="node">
<title>nhs_s3</title>
<ellipse fill="#d3d3d3" stroke="#d3d3d3" cx="709.3053" cy="-306" rx="37.7236" ry="18"/>
<text text-anchor="middle" x="709.3053" y="-301.8" font-family="Times,serif" font-size="14.00" fill="#000000">nhs_s3</text>
</g>
<!-- athena_nhs_clean -->
<g id="node13" class="node">
<title>athena_nhs_clean</title>
<polygon fill="#ffa500" stroke="#ffa500" points="766.8197,-252 651.7908,-252 651.7908,-216 766.8197,-216 766.8197,-252"/>
<text text-anchor="middle" x="709.3053" y="-229.8" font-family="Times,serif" font-size="14.00" fill="#000000">athena_nhs_clean</text>
</g>
<!-- nhs_s3&#45;&gt;athena_nhs_clean -->
<g id="edge9" class="edge">
<title>nhs_s3&#45;&gt;athena_nhs_clean</title>
<path fill="none" stroke="#000000" d="M709.3053,-287.8314C709.3053,-280.131 709.3053,-270.9743 709.3053,-262.4166"/>
<polygon fill="#000000" stroke="#000000" points="712.8054,-262.4132 709.3053,-252.4133 705.8054,-262.4133 712.8054,-262.4132"/>
</g>
<!-- location_s3 -->
<g id="node8" class="node">
<title>location_s3</title>
<ellipse fill="#d3d3d3" stroke="#d3d3d3" cx="397.3053" cy="-162" rx="55.6178" ry="18"/>
<text text-anchor="middle" x="397.3053" y="-157.8" font-family="Times,serif" font-size="14.00" fill="#000000">location_s3</text>
</g>
<!-- athena_merge -->
<g id="node15" class="node">
<title>athena_merge</title>
<polygon fill="#ffa500" stroke="#ffa500" points="520.3213,-108 426.2892,-108 426.2892,-72 520.3213,-72 520.3213,-108"/>
<text text-anchor="middle" x="473.3053" y="-85.8" font-family="Times,serif" font-size="14.00" fill="#000000">athena_merge</text>
</g>
<!-- location_s3&#45;&gt;athena_merge -->
<g id="edge14" class="edge">
<title>location_s3&#45;&gt;athena_merge</title>
<path fill="none" stroke="#000000" d="M415.3162,-144.937C424.7118,-136.0359 436.3865,-124.9756 446.7927,-115.1172"/>
<polygon fill="#000000" stroke="#000000" points="449.2426,-117.6175 454.095,-108.1992 444.4284,-112.5358 449.2426,-117.6175"/>
</g>
<!-- web_sub_clean_s3 -->
<g id="node10" class="node">
<title>web_sub_clean_s3</title>
<ellipse fill="#d3d3d3" stroke="#d3d3d3" cx="239.3053" cy="-162" rx="83.9547" ry="18"/>
<text text-anchor="middle" x="239.3053" y="-157.8" font-family="Times,serif" font-size="14.00" fill="#000000">web_sub_clean_s3</text>
</g>
<!-- athena_web_sub_clean&#45;&gt;web_sub_clean_s3 -->
<g id="edge6" class="edge">
<title>athena_web_sub_clean&#45;&gt;web_sub_clean_s3</title>
<path fill="none" stroke="#000000" d="M239.3053,-215.8314C239.3053,-208.131 239.3053,-198.9743 239.3053,-190.4166"/>
<polygon fill="#000000" stroke="#000000" points="242.8054,-190.4132 239.3053,-180.4133 235.8054,-190.4133 242.8054,-190.4132"/>
</g>
<!-- web_sub_clean_s3&#45;&gt;athena_merge -->
<g id="edge11" class="edge">
<title>web_sub_clean_s3&#45;&gt;athena_merge</title>
<path fill="none" stroke="#000000" d="M287.5065,-147.1689C324.8778,-135.67 376.7732,-119.7022 416.222,-107.5641"/>
<polygon fill="#000000" stroke="#000000" points="417.4383,-110.8519 425.9667,-104.5657 415.3796,-104.1614 417.4383,-110.8519"/>
</g>
<!-- ivr_sub_clean_s3 -->
<g id="node12" class="node">
<title>ivr_sub_clean_s3</title>
<ellipse fill="#d3d3d3" stroke="#d3d3d3" cx="549.3053" cy="-162" rx="78.7357" ry="18"/>
<text text-anchor="middle" x="549.3053" y="-157.8" font-family="Times,serif" font-size="14.00" fill="#000000">ivr_sub_clean_s3</text>
</g>
<!-- athena_ivr_sub_clean&#45;&gt;ivr_sub_clean_s3 -->
<g id="edge8" class="edge">
<title>athena_ivr_sub_clean&#45;&gt;ivr_sub_clean_s3</title>
<path fill="none" stroke="#000000" d="M549.3053,-215.8314C549.3053,-208.131 549.3053,-198.9743 549.3053,-190.4166"/>
<polygon fill="#000000" stroke="#000000" points="552.8054,-190.4132 549.3053,-180.4133 545.8054,-190.4133 552.8054,-190.4132"/>
</g>
<!-- ivr_sub_clean_s3&#45;&gt;athena_merge -->
<g id="edge12" class="edge">
<title>ivr_sub_clean_s3&#45;&gt;athena_merge</title>
<path fill="none" stroke="#000000" d="M530.5187,-144.2022C521.2714,-135.4416 509.964,-124.7293 499.8506,-115.1482"/>
<polygon fill="#000000" stroke="#000000" points="502.0702,-112.4298 492.4036,-108.0931 497.256,-117.5114 502.0702,-112.4298"/>
</g>
<!-- nhs_clean_s3 -->
<g id="node14" class="node">
<title>nhs_clean_s3</title>
<ellipse fill="#d3d3d3" stroke="#d3d3d3" cx="709.3053" cy="-162" rx="63.1247" ry="18"/>
<text text-anchor="middle" x="709.3053" y="-157.8" font-family="Times,serif" font-size="14.00" fill="#000000">nhs_clean_s3</text>
</g>
<!-- athena_nhs_clean&#45;&gt;nhs_clean_s3 -->
<g id="edge10" class="edge">
<title>athena_nhs_clean&#45;&gt;nhs_clean_s3</title>
<path fill="none" stroke="#000000" d="M709.3053,-215.8314C709.3053,-208.131 709.3053,-198.9743 709.3053,-190.4166"/>
<polygon fill="#000000" stroke="#000000" points="712.8054,-190.4132 709.3053,-180.4133 705.8054,-190.4133 712.8054,-190.4132"/>
</g>
<!-- nhs_clean_s3&#45;&gt;athena_merge -->
<g id="edge13" class="edge">
<title>nhs_clean_s3&#45;&gt;athena_merge</title>
<path fill="none" stroke="#000000" d="M666.0192,-148.7941C627.8295,-137.143 571.903,-120.0807 530.1228,-107.3342"/>
<polygon fill="#000000" stroke="#000000" points="530.9497,-103.9272 520.3636,-104.3568 528.907,-110.6226 530.9497,-103.9272"/>
</g>
<!-- output -->
<g id="node16" class="node">
<title>output</title>
<ellipse fill="#00ff00" stroke="#00ff00" cx="473.3053" cy="-18" rx="35.9368" ry="18"/>
<text text-anchor="middle" x="473.3053" y="-13.8" font-family="Times,serif" font-size="14.00" fill="#000000">output</text>
</g>
<!-- athena_merge&#45;&gt;output -->
<g id="edge15" class="edge">
<title>athena_merge&#45;&gt;output</title>
<path fill="none" stroke="#000000" d="M473.3053,-71.8314C473.3053,-64.131 473.3053,-54.9743 473.3053,-46.4166"/>
<polygon fill="#000000" stroke="#000000" points="476.8054,-46.4132 473.3053,-36.4133 469.8054,-46.4133 476.8054,-46.4132"/>
</g>
</g>
</svg>